<svg xmlns="http://www.w3.org/2000/svg" viewBox="0 0 120 120" fill="none">
  <rect width="120" height="120" rx="26" fill="#06C755"/>
  <path fill="white" d="M101.4 51.9c0-18.8-18.9-34.2-42.1-34.2S17.1 33.1 17.1 51.9c0 16.9 15 31 35.1 33.6 1.4.3 3.2.9 3.7 2.1.4 1.1.3 2.8.1 3.9l-.6 3.9c-.2 1.1-.8 4.3 3.7 2.3 4.6-1.9 24.5-14.4 33.5-24.7 6.1-6.7 9.1-13.5 9.1-21.1"/>
  <path fill="#06C755" d="M52.8 42.2h-3c-.6 0-1 .5-1 1v22.7c0 .6.5 1 1 1h3c.6 0 1-.5 1-1V43.2c0-.5-.5-1-1-1m16.3 0h-3c-.6 0-1 .5-1 1v13.5L56.4 42.5c0-.1-.1-.1-.1-.1l-.1-.1-.1-.1H53c-.6 0-1 .5-1 1v22.7c0 .6.5 1 1 1h3c.6 0 1-.5 1-1V52.4l7.8 14.3c.1.2.2.3.4.4.1 0 .1.1.2.1h3.7c.6 0 1-.5 1-1V43.2c0-.5-.5-1-1-1M46.3 60.8H36.5V43.2c0-.6-.5-1-1-1h-3c-.6 0-1 .5-1 1v22.7c0 .3.1.5.3.7.2.2.4.3.7.3h13.8c.6 0 1-.5 1-1v-3c0-.6-.5-1.1-1-1.1m41 -14.9c.6 0 1-.5 1-1v-3c0-.6-.5-1-1-1H73.5c-.3 0-.5.1-.7.3-.2.2-.3.4-.3.7v22.7c0 .3.1.5.3.7.2.2.4.3.7.3h13.8c.6 0 1-.5 1-1v-3c0-.6-.5-1-1-1H77.5v-5.3h9.8c.6 0 1-.5 1-1v-3c0-.6-.5-1-1-1h-9.8v-5.3h9.8z"/>
</svg>